<svg xmlns="http://www.w3.org/2000/svg" xmlns:xlink="http://www.w3.org/1999/xlink" id="Layer_1" x="0" y="0" version="1.1" viewBox="0 0 455 512" style="enable-background:new 0 0 455 512" xml:space="preserve"><path d="M237.1,207.4h2.1l-0.3,2.5h-2.1L237.1,207.4z M254.6,193.1v31.8c-0.1,2-1.1,3.8-2.9,5l-27.6,15.9c-1.6,0.9-4.2,0.9-5.8,0	l-27.6-15.9c-1.7-1.1-2.8-2.9-2.9-5v-31.8c0-1.8,1.3-4.1,2.9-5l27.6-15.9c1.6-0.9,4.2-0.9,5.8,0l27.6,15.9	C253.4,189.2,254.5,191.2,254.6,193.1z M240.5,220.1l-9.6-5.6c-6.4,10.3-20.6,5.2-20.7-5.6c0.5-11.7,14.9-15.2,20.7-5.6l9.6-5.6	c-12.5-20.2-41.6-10.6-41.5,11.1C199.6,232.4,229.5,239.3,240.5,220.1z M242.8,205.6h-1.6l0.3-2.9h-1.8l-0.3,2.9h-2.1l0.3-2.9h-1.8	l-0.3,2.9h-1.7v1.8h1.6l-0.3,2.5h-1.8v1.8h1.6l-0.3,3.1h1.9l0.3-3.1h2.1l-0.3,3.1h1.9l0.3-3.1h1.8v-1.8h-1.6l0.3-2.5h1.8V205.6z"/></svg>