<svg xmlns="http://www.w3.org/2000/svg" xmlns:xlink="http://www.w3.org/1999/xlink" id="Layer_1" x="0" y="0" version="1.1" viewBox="0 0 32 32" style="enable-background:new 0 0 32 32" xml:space="preserve"><path d="M4.3-19.4v11.2h-22.5V3.1h-11.2v11.2h-3.5c-1.2,0-2.2,0.6-2.9,1.5c0,0-0.3,0.4-0.5,0.7c-0.1,0.3-0.2,0.8-0.4,1.2	c-0.2,0.8-0.4,1.7-0.4,3c0,2.6,0.3,5.4,1.1,8.3c-0.3,0.1-0.7,0.2-0.9,0.2h1.1c0.8,2.9,2,5.8,3.6,8.7c0,0.1,0.1,0.2,0.1,0.2v0.1	c0.2,0.9,0.8,1.7,1.5,2.2l0.1,0.1c0.6,0.9,1.3,1.7,2,2.6c6.1,7,16,12.4,30.1,12.4c21.6,0,40.3-8.9,51.5-26.3h19	c-2.4-0.6-7.5-1.5-6.7-4.6c-2.6,3-7.5,3.7-11.5,3.2c1.3-2.2,2.5-4.5,3.6-6.9c6.2-0.4,10.9-2.5,13.6-5c3-2.9,4-6.3,4-6.3	c0.4-1.4-0.1-2.9-1.2-3.9c0,0-5.7-4-13.8-3.2c-2.8-7.5-8.7-11.1-8.7-11.1C50.7-9,49.7-9.1,48.9-9c-0.6,0.1-1.2,0.4-1.6,0.8	c0,0-1.7,1.5-3,4S41.6,2,42.1,6.7c0.2,1.7,1.2,3.2,1.9,4.9c-0.5,0.3-0.9,0.6-1.5,0.9c-1.9,0.9-4.5,1.8-7.8,1.8h-0.4V3.1H23v-22.5	H4.3z M11.8-11.9h3.7v3.7h-3.7V-11.9z M-10.7-0.7H-7v3.7h-3.7V-0.7z M0.5-0.7h3.7v3.7H0.5V-0.7z M11.8-0.7h3.7v3.7h-3.7V-0.7z M50.5,0.5c1.3,1.5,2.8,3.7,3.4,6.8c0.2,1,0.8,1.9,1.7,2.5c0.9,0.6,2,0.7,3,0.4c3.4-0.9,5.9-0.6,7.6-0.1c-0.2,0.2-0.1,0.2-0.4,0.5	c-1.7,1.7-4.6,3.5-10.5,3.3c-1.6-0.1-3,0.9-3.6,2.3c-1.7,4.2-3.6,7.9-6,11.2c-5.5,2.1-17.8,0.6-18.8-2.2c-3.7,4.3-14.9,4.3-18.6,0	C7.1,28.5-10,30-12.9,25.8c-2.4,2.2-10.9,3.7-15.8,0.4c-0.3-1.5-0.5-3-0.6-4.3h63.9c4.7,0,8.4-1.3,11.1-2.6c1.3-0.7,2.5-1.3,3.3-1.9	c0.8-0.6,1.5-1.1,1.3-0.9c0.9-0.5,1.6-1.5,1.8-2.5c0.2-1.1,0-2.1-0.7-3c-1-1.3-1.6-2.9-1.8-4.9C49.3,3.4,49.9,1.8,50.5,0.5z M-21.9,10.6h3.7v3.7h-3.7V10.6z M-10.7,10.6H-7v3.7h-3.7V10.6z M0.5,10.6h3.7v3.7H0.5V10.6z M11.8,10.6h3.7v3.7h-3.7V10.6z M23,10.6h3.7v3.7H23V10.6z M-27.9,29.3h72.2C34.4,42,19.5,48.1,1.6,48.1c-9.4,0-16-2.5-20.7-6.2c8-0.3,13.7-2.3,13.7-2.3	c2-0.4,3.4-2.4,3-4.4c-0.4-2-2.4-3.4-4.4-3c-0.2,0-0.3,0.1-0.5,0.1c-0.2,0.1-0.4,0.1-0.6,0.2c0,0-8.2,2.7-17.9,1.5	C-26.7,32.5-27.4,30.9-27.9,29.3z M-0.5,30c-1.2,0-2.2,1-2.2,2.2c0,1.2,1,2.2,2.2,2.2c1.2,0,2.1-1,2.1-2.2c0-0.3,0-0.6-0.1-0.8	c-0.1,0.3-0.5,0.5-0.8,0.5c-0.5,0-0.8-0.4-0.8-0.9c0-0.3,0.1-0.6,0.4-0.7C-0.1,30.1-0.2,30-0.5,30z"/></svg>