<?xml version="1.0" encoding="utf-8"?>
<!-- Generator: Adobe Illustrator 27.0.1, SVG Export Plug-In . SVG Version: 6.00 Build 0)  -->
<svg version="1.1" id="Layer_1" xmlns="http://www.w3.org/2000/svg" xmlns:xlink="http://www.w3.org/1999/xlink" x="0px" y="0px"
	 viewBox="0 0 32 32" style="enable-background:new 0 0 32 32;" xml:space="preserve">
<path d="M-63.7-24v69.1h8.1v-50c0.1-3.1-0.1-6.3-0.4-9.5h0.3c0.6,1.5,1.3,3,2.2,4.3L-18,45h9.9v-69h-8v48.6
	c-0.1,3.4,0.1,6.8,0.5,10.1h-0.2c-0.4-0.8-1.4-2.4-2.8-4.6L-53.2-24L-63.7-24z M9.8-24v69.1h36.7l0-7.6H18.1v-24H43V6.3H18.1v-22.9
	h26.8V-24L9.8-24z M52.8-24v7.3h19.9v61.8h8.1v-61.8h20.1V-24L52.8-24z M-83.5,35.2c-1.4,0-2.7,0.6-3.6,1.6c-1,1-1.5,2.4-1.5,3.8
	c0,1.4,0.6,2.8,1.5,3.8c1,1,2.4,1.6,3.8,1.6c1.5,0,2.8-0.6,3.8-1.6c1-1,1.6-2.4,1.6-3.8s-0.6-2.8-1.6-3.8c-1-1-2.3-1.6-3.8-1.6
	C-83.4,35.2-83.5,35.2-83.5,35.2L-83.5,35.2z"/>
</svg>
