<svg xmlns="http://www.w3.org/2000/svg" xmlns:xlink="http://www.w3.org/1999/xlink" id="Layer_1" x="0" y="0" version="1.1" viewBox="0 0 24 24" style="enable-background:new 0 0 24 24" xml:space="preserve"><style type="text/css">.st0{fill:#fff}</style><path d="M9.7,23.2h-30.4c-1.1-3.6-1.7-7.4-1.7-11.3c0-3.9,0.6-7.7,1.7-11.3h49.9c6.2,0,11.2,5,11.3,11.2c0,0,0,0,0,0.1	c0,6.2-4.9,11.2-11.1,11.3c0,0,0,0,0,0H9.7z M8.3,27h-27.6c2.9,6.7,7.7,12.3,13.8,16.3c6.1,4.1,13.3,6.2,20.6,6.2	c13.1,0,24.5-6.7,31.2-16.7c-3.6-3.7-8.5-5.8-13.7-5.8L8.3,27z M32.7-3C38-3,42.9-5.3,46.4-8.8C34.8-26.1,11.4-30.7-5.8-19.1	c-5.9,4-10.6,9.6-13.5,16.1H8.2H32.7z" class="st0"/></svg>