<svg xmlns="http://www.w3.org/2000/svg" xmlns:xlink="http://www.w3.org/1999/xlink" id="Layer_1" x="0" y="0" version="1.1" viewBox="0 0 32 32" style="enable-background:new 0 0 32 32" xml:space="preserve"><path d="M16-21.5C-5.2-21.5-22.4-4.3-22.4,17c0,17,11,31.4,26.3,36.5c1.9,0.4,2.6-0.8,2.6-1.9c0-0.9,0-3.3,0-6.5	c-10.7,2.3-13-5.2-13-5.2c-1.8-4.4-4.3-5.6-4.3-5.6c-3.5-2.4,0.3-2.3,0.3-2.3c3.9,0.3,5.9,4,5.9,4c3.4,5.9,9,4.2,11.2,3.2	c0.3-2.5,1.3-4.2,2.4-5.1c-8.5-1-17.5-4.3-17.5-19c0-4.2,1.5-7.6,4-10.3C-5,3.7-6.3-0.3-4.2-5.6c0,0,3.2-1,10.6,3.9	c3.1-0.9,6.3-1.3,9.6-1.3c3.3,0,6.5,0.4,9.6,1.3c7.3-5,10.5-3.9,10.5-3.9c2.1,5.3,0.8,9.2,0.4,10.2c2.4,2.7,3.9,6.1,3.9,10.3	c0,14.8-9,18-17.5,19c1.3,1.2,2.6,3.5,2.6,7.1c0,5.1,0,9.3,0,10.5c0,1,0.7,2.2,2.7,1.8c15.4-5,26.4-19.4,26.4-36.4	C54.4-4.3,37.2-21.5,16-21.5L16-21.5z"/></svg>