<?xml version="1.0" encoding="utf-8"?>
<!-- Generator: Adobe Illustrator 27.0.1, SVG Export Plug-In . SVG Version: 6.00 Build 0)  -->
<svg version="1.1" id="Layer_1" xmlns="http://www.w3.org/2000/svg" xmlns:xlink="http://www.w3.org/1999/xlink" x="0px" y="0px"
	 viewBox="0 0 448 512" style="enable-background:new 0 0 448 512;" xml:space="preserve">
<style type="text/css">
	.st0{fill:#FFFFFF;}
</style>
<path class="st0" d="M361,326H302c-4.4,0-8,3.6-8,8V393c0,4.4,3.6,8,8,8H361c4.4,0,8-3.6,8-8V334C369,329.6,365.4,326,361,326z
	 M334.8,384.5c0,7.3-4.3,10.6-10.5,10.6c-5.6,0-8.9-2.9-10.6-6.4l5.7-3.5c1.1,2,2.1,3.6,4.5,3.6c2.3,0,3.8-0.9,3.8-4.4v-24h7V384.5z
	 M351.5,395.1c-6.5,0-10.8-3.1-12.8-7.2l5.7-3.3c1.5,2.5,3.5,4.3,6.9,4.3c2.9,0,4.8-1.5,4.8-3.5c0-2.4-1.9-3.3-5.1-4.7l-1.8-0.8
	c-5.1-2.2-8.5-4.9-8.5-10.6c0-5.3,4-9.3,10.3-9.3c4.5,0,7.7,1.6,10,5.6l-5.5,3.5c-1.2-2.2-2.5-3-4.5-3c-2.1,0-3.4,1.3-3.4,3
	c0,2.1,1.3,3,4.3,4.3l1.8,0.8c6,2.6,9.4,5.2,9.4,11.1C363.2,391.6,358.2,395.1,351.5,395.1L351.5,395.1z"/>
</svg>
