<svg xmlns="http://www.w3.org/2000/svg" xmlns:xlink="http://www.w3.org/1999/xlink" id="Layer_1" x="0" y="0" version="1.1" viewBox="0 0 512 512" style="enable-background:new 0 0 512 512" xml:space="preserve"><path d="M295.4,259.2l-4.2-13.1c0-0.1-0.1-0.2-0.1-0.4l-8.5-26.3c-0.5-1.4-1.8-2.3-3.2-2.3c-1.5,0-2.7,0.9-3.2,2.3l-8.1,25h-25.4	l-8.1-25c-0.4-1.4-1.7-2.3-3.2-2.3h0c-1.5,0-2.8,1-3.2,2.3l-8.5,26.3c0,0,0,0,0,0.1l-4.3,13.3c-0.6,2,0.1,4.2,1.7,5.4l37.1,27.2	c0.7,0.5,1.6,0.5,2.2,0l37.1-27.2C295.4,263.4,296.1,261.2,295.4,259.2 M240,248.4l10.3,32.1l-24.8-32.1 M260.6,280.5l9.9-30.8	l0.4-1.3h14.5l-22.4,29 M279.5,221.9l7.3,22.6h-14.5 M267,248.3l-7.2,22.4l-4.3,13.3L244,248.3 M231.5,221.9l7.3,22.6h-14.5 M219.5,261.5c-0.4-0.3-0.5-0.7-0.4-1.2l3.2-9.9l23.4,30.2 M291.5,261.5l-26.2,19.2l0.1-0.1l23.3-30.1l3.2,9.9	C292,260.8,291.8,261.2,291.5,261.5"/></svg>