<svg xmlns="http://www.w3.org/2000/svg" xmlns:xlink="http://www.w3.org/1999/xlink" id="Layer_1" x="0" y="0" version="1.1" viewBox="0 0 1024 1176.5" style="enable-background:new 0 0 1024 1176.5" xml:space="preserve"><style type="text/css">.st0{fill:#fcfcfc}</style><path d="M511.8,530c0,0,0-25.9,0.9-25.9c0.7,0,1.5,33.4,1.5,33.4C513,537.3,511.8,532,511.8,530L511.8,530z M528.4,504.4c-2.3-10-7.3-18.7-14.3-25.3l0,0c-0.8-1.3-1.6-2.8-2.2-4.3l-0.1-0.2c0,0.1,0,0.1,0,0.2c0,1.4-0.6,2.7-1.6,3.5l0,0	c-8.9,7.6-14.6,18.8-14.8,31.3l0,0c0,0.2,0,0.3,0,0.5c0,12.4,6,23.4,15.2,30.3l0.1,0.1l0.2,0.2c0.4,3,0.7,6,1,8.9h1.5	c0.4-3.7,1-7,1.7-10.2l-0.1,0.6c1-0.7,1.9-1.4,2.7-2.2l0,0c7-6.5,11.4-15.7,11.4-26c0-0.2,0-0.3,0-0.5l0,0c0-2.5-0.2-4.9-0.7-7.2	L528.4,504.4L528.4,504.4z" class="st0"/></svg>