<?xml version="1.0" encoding="utf-8"?>
<!-- Generator: Adobe Illustrator 27.0.1, SVG Export Plug-In . SVG Version: 6.00 Build 0)  -->
<svg version="1.1" id="Layer_1" xmlns="http://www.w3.org/2000/svg" xmlns:xlink="http://www.w3.org/1999/xlink" x="0px" y="0px"
	 viewBox="0 0 24 24" style="enable-background:new 0 0 24 24;" xml:space="preserve">
<path d="M43.9,4.9H21.7c-1.8-0.2-3.1-1.8-3.1-3.6v-23.2c0-2-1.6-3.6-3.6-3.6H7.3c-2,0-3.6,1.6-3.6,3.6V1.6C3.6,3.3,2.1,4.8,0.4,4.9
	h-5.8c-1.7-0.2-3-1.6-3.1-3.4v-23.5c0-2-1.6-3.6-3.6-3.6h-7.8c-2,0-3.6,1.6-3.6,3.6V8.5v37.4c0,2,1.6,3.6,3.6,3.6h7.8H7.3H15h28.9
	c2,0,3.6-1.6,3.6-3.6V8.5C47.5,6.5,45.9,4.9,43.9,4.9z M33.7,30.6c0,2-1.6,3.6-3.6,3.6h-7.8c-2,0-3.6-1.6-3.6-3.6v-7.3
	c0-2,1.6-3.6,3.6-3.6h7.8c2,0,3.6,1.6,3.6,3.6L33.7,30.6z"/>
</svg>
