<?xml version="1.0" encoding="utf-8"?>
<!-- Generator: Adobe Illustrator 27.0.1, SVG Export Plug-In . SVG Version: 6.00 Build 0)  -->
<svg version="1.1" id="Layer_1" xmlns="http://www.w3.org/2000/svg" xmlns:xlink="http://www.w3.org/1999/xlink" x="0px" y="0px"
	 viewBox="0 0 32 32" style="enable-background:new 0 0 32 32;" xml:space="preserve">
<style type="text/css">
	.st0{fill:#FCFCFC;}
</style>
<path class="st0" d="M59.7,24.5c0,0.8-1.1,1.8-3.4,2.9c-4.7,2.4-28.9,12.4-34,15.1c-5.2,2.7-8,2.7-12.1,0.7
	c-4.1-1.9-29.8-12.3-34.5-14.6c-2.3-1.1-3.5-2-3.5-2.9v8.8c0,0.9,1.2,1.8,3.5,2.9c4.6,2.2,30.4,12.6,34.5,14.6c4.1,2,6.9,2,12.1-0.7
	c5.2-2.7,29.3-12.6,34-15.1c2.4-1.2,3.4-2.2,3.4-3.1C59.8,32.4,59.8,24.5,59.7,24.5C59.8,24.5,59.7,24.5,59.7,24.5L59.7,24.5z
	 M59.7,10.1c0,0.8-1.1,1.8-3.4,2.9c-4.7,2.4-28.9,12.4-34,15.1c-5.2,2.7-8,2.7-12.1,0.7c-4.1-2-29.8-12.3-34.5-14.6
	c-2.3-1.1-3.5-2-3.5-2.9v8.8c0,0.9,1.2,1.8,3.5,2.9c4.6,2.2,30.4,12.6,34.5,14.6c4.1,1.9,6.9,2,12.1-0.7c5.2-2.7,29.3-12.6,34-15.1
	c2.4-1.2,3.4-2.2,3.4-3.1C59.8,18,59.8,10.1,59.7,10.1C59.8,10.1,59.7,10.1,59.7,10.1z M59.7-4.8c0-0.9-1.1-1.7-3.5-2.5
	C51.7-9,27.7-18.6,23.1-20.3c-4.6-1.7-6.5-1.6-11.9,0.3c-5.4,2-31,12-35.6,13.8c-2.3,0.9-3.4,1.7-3.3,2.6v8.8c0,0.9,1.2,1.8,3.5,2.9
	c4.6,2.2,30.4,12.6,34.5,14.6c4.1,1.9,6.9,2,12.1-0.7c5.1-2.7,29.3-12.6,34-15.1c2.4-1.2,3.4-2.2,3.4-3.1
	C59.8,3.1,59.8-4.9,59.7-4.8L59.7-4.8z M3.6,3.5l20.3-3.1l-6.1,9L3.6,3.5z M48.4-4.6L35.1,0.7l-12-4.7l13.3-5.2L48.4-4.6z
	 M13.2-13.3l-2-3.6l6.1,2.4l5.8-1.9l-1.6,3.7l5.9,2.2l-7.6,0.8l-1.7,4.1l-2.7-4.6l-8.8-0.8L13.2-13.3z M-1.9-8.1C4.1-8.1,9-6.3,9-4
	C9-1.6,4.1,0.2-1.9,0.2S-12.7-1.6-12.7-4C-12.7-6.3-7.9-8.1-1.9-8.1z"/>
</svg>
