<?xml version="1.0" encoding="utf-8"?>
<!-- Generator: Adobe Illustrator 27.0.1, SVG Export Plug-In . SVG Version: 6.00 Build 0)  -->
<svg version="1.1" id="Layer_1" xmlns="http://www.w3.org/2000/svg" xmlns:xlink="http://www.w3.org/1999/xlink" x="0px" y="0px"
	 viewBox="0 0 15 15" style="enable-background:new 0 0 15 15;" xml:space="preserve">
<style type="text/css">
	.st0{fill-rule:evenodd;clip-rule:evenodd;}
</style>
<path class="st0" d="M-9.5-24.1C-2.3-27.1,8.5-30,19-30c1.6,0,2.9,1.3,2.9,2.9v5.8c0,1.6-1.3,2.9-2.9,2.9c-1.6,0-2.9-1.3-2.9-2.9
	v-2.8c-8.7,0.5-17.4,2.9-23.5,5.4c-0.4,0.2-0.8,0.3-1.2,0.5c4.9,0.2,11.2,0.5,18.1,1.4c10.9,1.4,23.4,4.3,34,10.3
	c1,0.6,1.6,1.7,1.4,2.9s-1,2.1-2.2,2.4C30.3,1.8,1.7,10.5-14,20.3l0,0c-0.6,0.4-1.2,0.7-1.9,1.1c-2.1,1.3-4.1,2.4-5.7,3.6
	c-1,0.8-1.8,1.4-2.2,2c-0.3,0.4-0.4,0.6-0.4,0.7c0,1.2,0.9,2.8,4.1,4.6c3.1,1.7,7.4,3.1,12.4,4.1c8.4,1.8,17.8,2.6,23.9,2.8V19
	c0-1.6,1.3-2.9,2.9-2.9c1.6,0,2.9,1.3,2.9,2.9v23.1c0,1.6-1.3,2.9-2.9,2.9c-5.9,0-17.7-0.7-28-2.9c-5.1-1.1-10.2-2.6-14-4.7
	c-3.7-2-7.1-5.1-7.1-9.6c0-1.8,0.8-3.2,1.7-4.3c0.9-1.1,2.1-2.1,3.2-3c1.9-1.4,4.2-2.8,6.3-4c0.5-0.3,1-0.6,1.4-0.9
	C-11.6,10.5-8.2,3-7.8-3c0.2-3-0.5-5.4-1.6-7c-1.1-1.5-3-2.6-6.2-2.8c-0.6,0-1.3-0.1-2-0.4c-0.8-0.3-1.9-1.2-2-2.7
	c-0.1-1.3,0.4-2.2,0.8-2.6c0.4-0.5,0.8-0.9,1.3-1.3C-16.1-21.1-13.1-22.7-9.5-24.1z M-4.1-12.3c1.7,2.8,2.2,6.2,2.1,9.7
	c-0.2,3.8-1.4,8-3.3,11.9c12.9-6,28.5-11,39.3-14.1C25.9-8.2,17-10.1,8.8-11.1C4.1-11.7-0.3-12.1-4.1-12.3z"/>
</svg>
