<svg xmlns="http://www.w3.org/2000/svg" xmlns:xlink="http://www.w3.org/1999/xlink" id="Layer_1" x="0" y="0" version="1.1" viewBox="0 0 24 24" style="enable-background:new 0 0 24 24" xml:space="preserve"><style type="text/css">.st0{fill:#050505}</style><path d="M-25.5,12v37.5h75v-75h-75V12z M34.9,9c1.9,0.5,3.4,1.3,4.7,2.7c0.7,0.7,1.7,2.1,1.8,2.4c0,0.1-3.2,2.3-5.2,3.5	c-0.1,0-0.4-0.3-0.7-0.7c-1-1.4-2-2-3.5-2.1c-2.3-0.2-3.7,1-3.7,3c0,0.5,0.1,1,0.3,1.4c0.5,1,1.4,1.7,4.3,2.9c5.4,2.3,7.7,3.8,9.1,6	c1.6,2.4,2,6.3,0.9,9.1c-1.2,3.1-4.1,5.2-8.3,5.9c-1.3,0.2-4.3,0.2-5.7-0.1c-3-0.5-5.9-2-7.6-4c-0.7-0.8-2-2.7-2-2.9	c0.2-0.2,0.4-0.3,0.7-0.4c0.3-0.2,1.6-0.9,2.8-1.6L25,33l0.5,0.7c0.6,1,2,2.3,2.8,2.7c2.4,1.3,5.7,1.1,7.3-0.4c0.7-0.6,1-1.4,1-2.2	c0-0.9-0.1-1.2-0.6-1.9c-0.6-0.8-1.8-1.5-5.2-3c-3.9-1.7-5.5-2.7-7.1-4.3c-1-1.1-1.7-2.4-2.1-3.7c-0.3-1.1-0.4-3.7-0.1-4.8	c0.8-3.7,3.6-6.3,7.7-7.1C30.6,8.6,33.6,8.7,34.9,9z M17.3,12.1l0,3.1H7.6V43H0.7V15.2h-9.8v-3c0-1.7,0-3.1,0.1-3.1	c0,0,6-0.1,13.2-0.1l13.1,0L17.3,12.1z" class="st0"/></svg>