<?xml version="1.0" encoding="utf-8"?>
<!-- Generator: Adobe Illustrator 27.0.1, SVG Export Plug-In . SVG Version: 6.00 Build 0)  -->
<svg version="1.1" id="Layer_1" xmlns="http://www.w3.org/2000/svg" xmlns:xlink="http://www.w3.org/1999/xlink" x="0px" y="0px"
	 viewBox="0 0 24 24" style="enable-background:new 0 0 24 24;" xml:space="preserve">
<path d="M22.4-3C22.2-3,22-2.8,22-2.6v4.2C22,1.8,22.2,2,22.4,2h4.2C26.8,2,27,1.8,27,1.6v-4.2C27-2.8,26.8-3,26.6-3H22.4z M22,27
	v-1.2c0-0.7,0.6-1.2,1.3-1.2s1.2,0.6,1.2,1.2V27H27v-1.2c0-0.7,0.6-1.2,1.2-1.2s1.2,0.6,1.2,1.2v2.5c0,0.7-0.6,1.2-1.2,1.2h-10
	c-0.7,0-1.2-0.6-1.2-1.2v-2.5c0-0.7,0.6-1.2,1.2-1.2s1.2,0.6,1.2,1.2V27H22z M14.5,9.5h1.2c0.7,0,1.2,0.6,1.2,1.2S16.4,12,15.7,12
	h-5c-0.7,0-1.2-0.6-1.2-1.2s0.6-1.2,1.2-1.2H12V7H8.2C7.6,7,7,6.4,7,5.8s0.6-1.2,1.3-1.2h7.5c0.7,0,1.2,0.6,1.2,1.2S16.4,7,15.7,7
	h-1.2V9.5z M27,12h-1.2c-0.7,0-1.2-0.6-1.2-1.2s0.6-1.2,1.2-1.2H27V8.2C27,7.6,27.6,7,28.2,7s1.2,0.6,1.2,1.2v5
	c0,0.7-0.6,1.2-1.2,1.2S27,13.9,27,13.2V12z M14.5,17h-1.2c-0.7,0-1.2-0.6-1.2-1.2s0.6-1.2,1.2-1.2h2.5c0.7,0,1.2,0.6,1.2,1.2v5
	c0,0.7-0.6,1.2-1.2,1.2H8.2C7.6,22,7,21.4,7,20.8s0.6-1.2,1.2-1.2h6.2V17z M22.4-5.5h4.2c1.6,0,2.9,1.3,2.9,2.9v4.2
	c0,1.6-1.3,2.9-2.9,2.9h-4.2c-1.6,0-2.9-1.3-2.9-2.9v-4.2C19.5-4.2,20.8-5.5,22.4-5.5z M-2.6-5.5h4.2c1.6,0,2.9,1.3,2.9,2.9v4.2
	c0,1.6-1.3,2.9-2.9,2.9h-4.2c-1.6,0-2.9-1.3-2.9-2.9v-4.2C-5.5-4.2-4.2-5.5-2.6-5.5z M-2.6-3C-2.8-3-3-2.8-3-2.6v4.2
	C-3,1.8-2.8,2-2.6,2h4.2C1.8,2,2,1.8,2,1.6v-4.2C2-2.8,1.8-3,1.6-3H-2.6z M-2.6,19.5h4.2c1.6,0,2.9,1.3,2.9,2.9v4.2
	c0,1.6-1.3,2.9-2.9,2.9h-4.2c-1.6,0-2.9-1.3-2.9-2.9v-4.2C-5.5,20.8-4.2,19.5-2.6,19.5z M-2.6,22C-2.8,22-3,22.2-3,22.4v4.2
	c0,0.2,0.2,0.4,0.4,0.4h4.2C1.8,27,2,26.8,2,26.6v-4.2C2,22.2,1.8,22,1.6,22L-2.6,22z M14.5-3H8.2C7.6-3,7-3.6,7-4.2
	s0.6-1.2,1.2-1.2h7.5c0.7,0,1.2,0.6,1.2,1.2v5C17,1.4,16.4,2,15.8,2s-1.2-0.6-1.2-1.2V-3z M8.2,2C7.6,2,7,1.4,7,0.8s0.6-1.2,1.2-1.2
	h2.5c0.7,0,1.2,0.6,1.2,1.2S11.4,2,10.8,2H8.2z M-4.2,17c-0.7,0-1.2-0.6-1.2-1.2s0.6-1.2,1.2-1.2h5c0.7,0,1.2,0.6,1.2,1.2
	S1.4,17,0.8,17H-4.2z M5.8,17c-0.7,0-1.2-0.6-1.2-1.2s0.6-1.2,1.2-1.2h2.5c0.7,0,1.2,0.6,1.2,1.2S8.9,17,8.2,17H5.8z M9.5,27v1.2
	c0,0.7-0.6,1.2-1.2,1.2S7,28.9,7,28.2v-2.5c0-0.7,0.6-1.2,1.2-1.2h5c0.7,0,1.2,0.6,1.2,1.2S13.9,27,13.2,27H9.5z M4.5,9.5h1.2
	c0.7,0,1.2,0.6,1.2,1.2S6.4,12,5.8,12H3.2C2.6,12,2,11.4,2,10.8V9.5H0.8c-0.7,0-1.2-0.6-1.2-1.2S0.1,7,0.8,7h2.5
	c0.7,0,1.2,0.6,1.2,1.2V9.5z M-5.5,8.2C-5.5,7.6-4.9,7-4.2,7S-3,7.6-3,8.2v2.5c0,0.7-0.6,1.2-1.2,1.2s-1.2-0.6-1.2-1.2V8.2z
	 M19.5,8.2c0-0.7,0.6-1.2,1.2-1.2S22,7.6,22,8.2v5c0,0.7-0.6,1.2-1.2,1.2s-1.2-0.6-1.2-1.2V8.2z M24.5,19.5v-1.2
	c0-0.7,0.6-1.2,1.2-1.2h2.5c0.7,0,1.2,0.6,1.2,1.2s-0.6,1.2-1.2,1.2H27v1.2c0,0.7-0.6,1.2-1.2,1.2h-5c-0.7,0-1.2-0.6-1.2-1.2v-2.5
	c0-0.7,0.6-1.2,1.2-1.2s1.2,0.6,1.2,1.2v1.2H24.5z M-10.5-1.8c0,0.7-0.6,1.2-1.2,1.2S-13-1.1-13-1.8v-5c0-3.5,2.8-6.2,6.2-6.2h5
	c0.7,0,1.2,0.6,1.2,1.2s-0.6,1.2-1.2,1.2h-5c-2.1,0-3.8,1.7-3.8,3.8V-1.8z M25.8-10.5c-0.7,0-1.2-0.6-1.2-1.2s0.6-1.2,1.2-1.2h5
	c3.5,0,6.2,2.8,6.2,6.2v5c0,0.7-0.6,1.2-1.2,1.2s-1.2-0.6-1.2-1.2v-5c0-2.1-1.7-3.8-3.8-3.8H25.8z M-1.8,34.5c0.7,0,1.2,0.6,1.2,1.2
	S-1.1,37-1.8,37h-5c-3.5,0-6.2-2.8-6.2-6.2v-5c0-0.7,0.6-1.2,1.2-1.2s1.2,0.6,1.2,1.2v5c0,2.1,1.7,3.8,3.8,3.8H-1.8z M34.5,25.8
	c0-0.7,0.6-1.2,1.2-1.2s1.2,0.6,1.2,1.2v5c0,3.5-2.8,6.2-6.2,6.2h-5c-0.7,0-1.2-0.6-1.2-1.2s0.6-1.2,1.2-1.2h5
	c2.1,0,3.8-1.7,3.8-3.8V25.8z"/>
</svg>
